<svg id="mouseover" xmlns="http://www.w3.org/2000/svg" viewBox="0 0 49 49"><title>profile_49_navigation_default</title><path d="M24.5,21h.05A6.4991,6.4991,0,0,0,31,14.45,6.53,6.53,0,0,0,24.45,8a6.5,6.5,0,0,0,.05,13Zm-2.7082-9.1664A3.7761,3.7761,0,0,1,24.46,10.7a3.8369,3.8369,0,0,1,3.84,3.7706A3.7993,3.7993,0,0,1,24.55,18.3H24.5a3.8005,3.8005,0,0,1-2.7082-6.4664Z"/><path d="M33,25.5375a31.7246,31.7246,0,0,0-17,0,31.3135,31.3135,0,0,0-3,.9969V40h3V28.6594a28.8226,28.8226,0,0,1,17,0V40h3V26.5344A31.3135,31.3135,0,0,0,33,25.5375Z"/></svg>