<svg id="default" xmlns="http://www.w3.org/2000/svg" viewBox="0 0 96 96"><title>catalogue_96_media_default</title><path d="M55,22a8.9631,8.9631,0,0,0-6.347,2.625H47.347A8.9631,8.9631,0,0,0,41,22H16V68H39a9.4007,9.4007,0,0,1,7.8,4.1332L48,74l1.2-1.8668A9.4007,9.4007,0,0,1,57,68H80V22ZM39.2293,64H20V26H41a5.0041,5.0041,0,0,1,4.0448,1.7378L46,28.9194V66.135A12.9544,12.9544,0,0,0,39.2293,64ZM76,64H57a13.7557,13.7557,0,0,0-7,2.135V28.9194l.9552-1.1816A5.0041,5.0041,0,0,1,55,26H76Z" fill="#444"/></svg>